<svg viewBox="0 0 1211 1750" fill="none" xmlns="http://www.w3.org/2000/svg">
  <path d="m0 0 200 95.8V859L0 962V0Z" fill="#000"/>
  <path d="m0 758 200 95.8V1617L0 1748.5V758ZM0 221.8 85.5 41l761.7 360.3L761.7 582z" fill="#000"/>
  <path fill="#000" d="M647 400h200v449H647zM120 1049V849h727v200z"/>
  <path d="M44 961.8 261.7 895l582.7 590.7 2.2 263.5L44 961.8ZM847 1049V849h164v200zM1211 990.5l-200-95.8V131.5L1211 0v990.5Z" fill="#000"/>
  <path d="m1211 1748.5-200-142v-717L1211 758v990.5Z" fill="#000"/>
</svg>
